<mxfile host="Electron" modified="2024-04-09T08:37:44.690Z" agent="Mozilla/5.0 (Windows NT 10.0; Win64; x64) AppleWebKit/537.36 (KHTML, like Gecko) draw.io/24.1.0 Chrome/120.0.6099.109 Electron/28.1.0 Safari/537.36" etag="oR69p008FuGlCt108n6d" version="24.1.0" type="device">
  <diagram id="R2lEEEUBdFMjLlhIrx00" name="Page-1">
    <mxGraphModel dx="1194" dy="854" grid="1" gridSize="10" guides="1" tooltips="1" connect="1" arrows="1" fold="1" page="1" pageScale="1" pageWidth="850" pageHeight="1100" math="0" shadow="0" extFonts="Permanent Marker^https://fonts.googleapis.com/css?family=Permanent+Marker">
      <root>
        <mxCell id="0" />
        <mxCell id="1" parent="0" />
        <mxCell id="p44rImVHBCHHs5AXks8T-24" style="rounded=0;orthogonalLoop=1;jettySize=auto;html=1;exitX=0.25;exitY=0;exitDx=0;exitDy=0;entryX=0.5;entryY=1;entryDx=0;entryDy=0;" parent="1" source="p44rImVHBCHHs5AXks8T-2" target="p44rImVHBCHHs5AXks8T-8" edge="1">
          <mxGeometry relative="1" as="geometry" />
        </mxCell>
        <mxCell id="p44rImVHBCHHs5AXks8T-25" style="rounded=0;orthogonalLoop=1;jettySize=auto;html=1;exitX=0.75;exitY=0;exitDx=0;exitDy=0;entryX=0.5;entryY=1;entryDx=0;entryDy=0;" parent="1" source="p44rImVHBCHHs5AXks8T-2" target="p44rImVHBCHHs5AXks8T-9" edge="1">
          <mxGeometry relative="1" as="geometry" />
        </mxCell>
        <mxCell id="p44rImVHBCHHs5AXks8T-26" style="rounded=0;orthogonalLoop=1;jettySize=auto;html=1;exitX=0.75;exitY=1;exitDx=0;exitDy=0;entryX=0.5;entryY=0;entryDx=0;entryDy=0;" parent="1" source="p44rImVHBCHHs5AXks8T-2" target="p44rImVHBCHHs5AXks8T-12" edge="1">
          <mxGeometry relative="1" as="geometry" />
        </mxCell>
        <mxCell id="p44rImVHBCHHs5AXks8T-27" style="rounded=0;orthogonalLoop=1;jettySize=auto;html=1;exitX=0.25;exitY=1;exitDx=0;exitDy=0;entryX=0.5;entryY=0;entryDx=0;entryDy=0;" parent="1" source="p44rImVHBCHHs5AXks8T-2" target="p44rImVHBCHHs5AXks8T-14" edge="1">
          <mxGeometry relative="1" as="geometry" />
        </mxCell>
        <mxCell id="p44rImVHBCHHs5AXks8T-39" style="edgeStyle=none;rounded=0;orthogonalLoop=1;jettySize=auto;html=1;exitX=1;exitY=0.5;exitDx=0;exitDy=0;entryX=0;entryY=0.5;entryDx=0;entryDy=0;" parent="1" source="p44rImVHBCHHs5AXks8T-2" target="p44rImVHBCHHs5AXks8T-5" edge="1">
          <mxGeometry relative="1" as="geometry" />
        </mxCell>
        <mxCell id="p44rImVHBCHHs5AXks8T-56" style="edgeStyle=none;rounded=0;orthogonalLoop=1;jettySize=auto;html=1;exitX=0.5;exitY=0;exitDx=0;exitDy=0;entryX=0.5;entryY=1;entryDx=0;entryDy=0;" parent="1" source="p44rImVHBCHHs5AXks8T-2" target="p44rImVHBCHHs5AXks8T-55" edge="1">
          <mxGeometry relative="1" as="geometry" />
        </mxCell>
        <mxCell id="p44rImVHBCHHs5AXks8T-2" value="Artikel" style="shape=ext;margin=3;double=1;whiteSpace=wrap;html=1;align=center;" parent="1" vertex="1">
          <mxGeometry x="225" y="390" width="100" height="40" as="geometry" />
        </mxCell>
        <mxCell id="p44rImVHBCHHs5AXks8T-40" style="edgeStyle=none;rounded=0;orthogonalLoop=1;jettySize=auto;html=1;exitX=1;exitY=0.5;exitDx=0;exitDy=0;entryX=0;entryY=0.5;entryDx=0;entryDy=0;" parent="1" source="p44rImVHBCHHs5AXks8T-5" target="p44rImVHBCHHs5AXks8T-6" edge="1">
          <mxGeometry relative="1" as="geometry" />
        </mxCell>
        <mxCell id="wMrdxKe9JCuUlne_QUnT-8" style="rounded=0;orthogonalLoop=1;jettySize=auto;html=1;exitX=0.5;exitY=1;exitDx=0;exitDy=0;entryX=0.5;entryY=0;entryDx=0;entryDy=0;" edge="1" parent="1" source="p44rImVHBCHHs5AXks8T-5" target="p44rImVHBCHHs5AXks8T-11">
          <mxGeometry relative="1" as="geometry" />
        </mxCell>
        <mxCell id="wMrdxKe9JCuUlne_QUnT-11" style="rounded=0;orthogonalLoop=1;jettySize=auto;html=1;exitX=1;exitY=0;exitDx=0;exitDy=0;entryX=0;entryY=1;entryDx=0;entryDy=0;" edge="1" parent="1" source="p44rImVHBCHHs5AXks8T-5" target="wMrdxKe9JCuUlne_QUnT-10">
          <mxGeometry relative="1" as="geometry">
            <mxPoint x="490" y="340" as="targetPoint" />
          </mxGeometry>
        </mxCell>
        <mxCell id="p44rImVHBCHHs5AXks8T-5" value="an" style="shape=rhombus;perimeter=rhombusPerimeter;whiteSpace=wrap;html=1;align=center;" parent="1" vertex="1">
          <mxGeometry x="380" y="380" width="120" height="60" as="geometry" />
        </mxCell>
        <mxCell id="p44rImVHBCHHs5AXks8T-33" style="edgeStyle=none;rounded=0;orthogonalLoop=1;jettySize=auto;html=1;exitX=0.5;exitY=0;exitDx=0;exitDy=0;entryX=0.5;entryY=1;entryDx=0;entryDy=0;" parent="1" source="p44rImVHBCHHs5AXks8T-6" target="p44rImVHBCHHs5AXks8T-20" edge="1">
          <mxGeometry relative="1" as="geometry" />
        </mxCell>
        <mxCell id="p44rImVHBCHHs5AXks8T-36" style="edgeStyle=none;rounded=0;orthogonalLoop=1;jettySize=auto;html=1;exitX=0.5;exitY=1;exitDx=0;exitDy=0;entryX=0.5;entryY=0;entryDx=0;entryDy=0;" parent="1" source="p44rImVHBCHHs5AXks8T-6" target="p44rImVHBCHHs5AXks8T-17" edge="1">
          <mxGeometry relative="1" as="geometry" />
        </mxCell>
        <mxCell id="p44rImVHBCHHs5AXks8T-52" style="edgeStyle=none;rounded=0;orthogonalLoop=1;jettySize=auto;html=1;exitX=1;exitY=0;exitDx=0;exitDy=0;entryX=0.07;entryY=0.85;entryDx=0;entryDy=0;entryPerimeter=0;" parent="1" source="p44rImVHBCHHs5AXks8T-6" target="p44rImVHBCHHs5AXks8T-19" edge="1">
          <mxGeometry relative="1" as="geometry" />
        </mxCell>
        <mxCell id="p44rImVHBCHHs5AXks8T-58" style="edgeStyle=none;rounded=0;orthogonalLoop=1;jettySize=auto;html=1;exitX=1;exitY=1;exitDx=0;exitDy=0;entryX=0;entryY=0;entryDx=0;entryDy=0;" parent="1" source="p44rImVHBCHHs5AXks8T-6" target="p44rImVHBCHHs5AXks8T-57" edge="1">
          <mxGeometry relative="1" as="geometry" />
        </mxCell>
        <mxCell id="wMrdxKe9JCuUlne_QUnT-2" style="edgeStyle=orthogonalEdgeStyle;rounded=0;orthogonalLoop=1;jettySize=auto;html=1;exitX=1;exitY=0.5;exitDx=0;exitDy=0;entryX=0;entryY=0.5;entryDx=0;entryDy=0;" edge="1" parent="1" source="p44rImVHBCHHs5AXks8T-6" target="wMrdxKe9JCuUlne_QUnT-1">
          <mxGeometry relative="1" as="geometry" />
        </mxCell>
        <mxCell id="p44rImVHBCHHs5AXks8T-6" value="Kunden" style="shape=ext;margin=3;double=1;whiteSpace=wrap;html=1;align=center;" parent="1" vertex="1">
          <mxGeometry x="530" y="390" width="100" height="40" as="geometry" />
        </mxCell>
        <mxCell id="p44rImVHBCHHs5AXks8T-8" value="Artikelnummer" style="ellipse;whiteSpace=wrap;html=1;align=center;fontStyle=4;" parent="1" vertex="1">
          <mxGeometry x="140" y="290" width="100" height="40" as="geometry" />
        </mxCell>
        <mxCell id="p44rImVHBCHHs5AXks8T-9" value="Artikelbez." style="ellipse;whiteSpace=wrap;html=1;align=center;fontStyle=4;" parent="1" vertex="1">
          <mxGeometry x="310" y="290" width="100" height="40" as="geometry" />
        </mxCell>
        <mxCell id="p44rImVHBCHHs5AXks8T-11" value="Positions Nr." style="ellipse;whiteSpace=wrap;html=1;align=center;fontStyle=4;" parent="1" vertex="1">
          <mxGeometry x="360" y="550" width="100" height="40" as="geometry" />
        </mxCell>
        <mxCell id="p44rImVHBCHHs5AXks8T-12" value="Artikel Anzahl." style="ellipse;whiteSpace=wrap;html=1;align=center;fontStyle=4;" parent="1" vertex="1">
          <mxGeometry x="310" y="470" width="100" height="40" as="geometry" />
        </mxCell>
        <mxCell id="p44rImVHBCHHs5AXks8T-13" value="Rechnungsnummer" style="ellipse;whiteSpace=wrap;html=1;align=center;fontStyle=4;" parent="1" vertex="1">
          <mxGeometry x="480" y="550" width="130" height="40" as="geometry" />
        </mxCell>
        <mxCell id="p44rImVHBCHHs5AXks8T-14" value="Listenpreis" style="ellipse;whiteSpace=wrap;html=1;align=center;fontStyle=4;" parent="1" vertex="1">
          <mxGeometry x="140" y="470" width="100" height="40" as="geometry" />
        </mxCell>
        <mxCell id="p44rImVHBCHHs5AXks8T-17" value="Gesamtbetrag" style="ellipse;whiteSpace=wrap;html=1;align=center;fontStyle=4;" parent="1" vertex="1">
          <mxGeometry x="530" y="470" width="100" height="40" as="geometry" />
        </mxCell>
        <mxCell id="p44rImVHBCHHs5AXks8T-19" value="Anschrift" style="ellipse;whiteSpace=wrap;html=1;align=center;fontStyle=4;" parent="1" vertex="1">
          <mxGeometry x="650" y="330" width="100" height="40" as="geometry" />
        </mxCell>
        <mxCell id="p44rImVHBCHHs5AXks8T-20" value="Kundennummer" style="ellipse;whiteSpace=wrap;html=1;align=center;fontStyle=4;" parent="1" vertex="1">
          <mxGeometry x="530" y="300" width="100" height="40" as="geometry" />
        </mxCell>
        <mxCell id="p44rImVHBCHHs5AXks8T-21" value="Rechnungdatum" style="ellipse;whiteSpace=wrap;html=1;align=center;fontStyle=4;" parent="1" vertex="1">
          <mxGeometry x="358" y="200" width="130" height="40" as="geometry" />
        </mxCell>
        <mxCell id="p44rImVHBCHHs5AXks8T-41" value="1" style="text;html=1;align=center;verticalAlign=middle;resizable=0;points=[];autosize=1;strokeColor=none;fillColor=none;" parent="1" vertex="1">
          <mxGeometry x="495" y="378" width="30" height="30" as="geometry" />
        </mxCell>
        <mxCell id="p44rImVHBCHHs5AXks8T-42" value="N" style="text;html=1;align=center;verticalAlign=middle;resizable=0;points=[];autosize=1;strokeColor=none;fillColor=none;" parent="1" vertex="1">
          <mxGeometry x="330" y="378" width="30" height="30" as="geometry" />
        </mxCell>
        <mxCell id="p44rImVHBCHHs5AXks8T-43" value="N" style="text;html=1;align=center;verticalAlign=middle;resizable=0;points=[];autosize=1;strokeColor=none;fillColor=none;" parent="1" vertex="1">
          <mxGeometry x="330" y="410" width="30" height="30" as="geometry" />
        </mxCell>
        <mxCell id="p44rImVHBCHHs5AXks8T-44" value="1" style="text;html=1;align=center;verticalAlign=middle;resizable=0;points=[];autosize=1;strokeColor=none;fillColor=none;" parent="1" vertex="1">
          <mxGeometry x="495" y="410" width="30" height="30" as="geometry" />
        </mxCell>
        <mxCell id="p44rImVHBCHHs5AXks8T-55" value="MwsT" style="ellipse;whiteSpace=wrap;html=1;align=center;fontStyle=4;" parent="1" vertex="1">
          <mxGeometry x="225" y="240" width="100" height="40" as="geometry" />
        </mxCell>
        <mxCell id="p44rImVHBCHHs5AXks8T-57" value="Name" style="ellipse;whiteSpace=wrap;html=1;align=center;fontStyle=4;" parent="1" vertex="1">
          <mxGeometry x="650" y="450" width="100" height="40" as="geometry" />
        </mxCell>
        <mxCell id="p44rImVHBCHHs5AXks8T-59" value="&lt;b&gt;&lt;i&gt;&lt;u&gt;&lt;font style=&quot;font-size: 40px;&quot;&gt;ERD/ERM&lt;/font&gt;&lt;/u&gt;&lt;/i&gt;&lt;/b&gt;" style="shape=ext;margin=3;double=1;whiteSpace=wrap;html=1;align=center;" parent="1" vertex="1">
          <mxGeometry x="240" y="20" width="370" height="120" as="geometry" />
        </mxCell>
        <mxCell id="p44rImVHBCHHs5AXks8T-64" style="edgeStyle=none;rounded=0;orthogonalLoop=1;jettySize=auto;html=1;exitX=0.5;exitY=1;exitDx=0;exitDy=0;" parent="1" source="p44rImVHBCHHs5AXks8T-57" target="p44rImVHBCHHs5AXks8T-57" edge="1">
          <mxGeometry relative="1" as="geometry" />
        </mxCell>
        <mxCell id="wMrdxKe9JCuUlne_QUnT-1" value="GebDatum" style="ellipse;whiteSpace=wrap;html=1;align=center;fontStyle=4;" vertex="1" parent="1">
          <mxGeometry x="690" y="390" width="100" height="40" as="geometry" />
        </mxCell>
        <mxCell id="wMrdxKe9JCuUlne_QUnT-3" style="edgeStyle=orthogonalEdgeStyle;rounded=0;orthogonalLoop=1;jettySize=auto;html=1;exitX=0.5;exitY=1;exitDx=0;exitDy=0;" edge="1" parent="1" source="p44rImVHBCHHs5AXks8T-17" target="p44rImVHBCHHs5AXks8T-17">
          <mxGeometry relative="1" as="geometry" />
        </mxCell>
        <mxCell id="wMrdxKe9JCuUlne_QUnT-4" value="DB Unternehmen" style="shape=datastore;whiteSpace=wrap;html=1;" vertex="1" parent="1">
          <mxGeometry x="363" y="660" width="125" height="150" as="geometry" />
        </mxCell>
        <mxCell id="wMrdxKe9JCuUlne_QUnT-6" style="edgeStyle=orthogonalEdgeStyle;rounded=0;orthogonalLoop=1;jettySize=auto;html=1;exitX=0.5;exitY=1;exitDx=0;exitDy=0;entryX=0.431;entryY=1;entryDx=0;entryDy=0;entryPerimeter=0;" edge="1" parent="1" source="p44rImVHBCHHs5AXks8T-13" target="p44rImVHBCHHs5AXks8T-13">
          <mxGeometry relative="1" as="geometry" />
        </mxCell>
        <mxCell id="wMrdxKe9JCuUlne_QUnT-7" style="rounded=0;orthogonalLoop=1;jettySize=auto;html=1;exitX=0.5;exitY=0;exitDx=0;exitDy=0;entryX=0.454;entryY=1;entryDx=0;entryDy=0;entryPerimeter=0;" edge="1" parent="1" source="p44rImVHBCHHs5AXks8T-5" target="p44rImVHBCHHs5AXks8T-21">
          <mxGeometry relative="1" as="geometry" />
        </mxCell>
        <mxCell id="wMrdxKe9JCuUlne_QUnT-9" style="rounded=0;orthogonalLoop=1;jettySize=auto;html=1;exitX=1;exitY=1;exitDx=0;exitDy=0;entryX=0.446;entryY=0.05;entryDx=0;entryDy=0;entryPerimeter=0;" edge="1" parent="1" source="p44rImVHBCHHs5AXks8T-5" target="p44rImVHBCHHs5AXks8T-13">
          <mxGeometry relative="1" as="geometry" />
        </mxCell>
        <mxCell id="wMrdxKe9JCuUlne_QUnT-10" value="Rechnungs ID" style="ellipse;whiteSpace=wrap;html=1;align=center;fontStyle=4;" vertex="1" parent="1">
          <mxGeometry x="515" y="210" width="130" height="40" as="geometry" />
        </mxCell>
      </root>
    </mxGraphModel>
  </diagram>
</mxfile>
